<svg width="58" height="51" viewBox="0 0 58 51" fill="none" xmlns="http://www.w3.org/2000/svg">
<path d="M23.5625 51C23.0818 51 22.6208 50.8081 22.2809 50.4665C21.941 50.1249 21.75 49.6616 21.75 49.1786C21.75 48.6955 21.941 48.2322 22.2809 47.8906C22.6208 47.549 23.0818 47.3571 23.5625 47.3571H47.125C49.0478 47.3571 50.8919 46.5895 52.2515 45.2232C53.6112 43.8569 54.375 42.0037 54.375 40.0714V10.9286C54.375 8.99628 53.6112 7.14313 52.2515 5.77679C50.8919 4.41046 49.0478 3.64286 47.125 3.64286H23.5625C23.0818 3.64286 22.6208 3.45096 22.2809 3.10937C21.941 2.76779 21.75 2.3045 21.75 1.82143C21.75 1.33836 21.941 0.875069 22.2809 0.533484C22.6208 0.1919 23.0818 0 23.5625 0H47.125C50.0092 0 52.7753 1.1514 54.8148 3.2009C56.8543 5.25041 58 8.03013 58 10.9286V40.0714C58 42.9699 56.8543 45.7496 54.8148 47.7991C52.7753 49.8486 50.0092 51 47.125 51H23.5625ZM24.0918 11.4604C24.2601 11.2908 24.4601 11.1562 24.6803 11.0644C24.9005 10.9726 25.1366 10.9253 25.375 10.9253C25.6134 10.9253 25.8495 10.9726 26.0697 11.0644C26.2899 11.1562 26.4899 11.2908 26.6583 11.4604L39.3457 24.2104C39.5145 24.3796 39.6485 24.5806 39.7398 24.8019C39.8312 25.0232 39.8782 25.2604 39.8782 25.5C39.8782 25.7396 39.8312 25.9768 39.7398 26.1981C39.6485 26.4194 39.5145 26.6204 39.3457 26.7896L26.6583 39.5396C26.3179 39.8816 25.8563 40.0737 25.375 40.0737C24.8937 40.0737 24.4321 39.8816 24.0918 39.5396C23.7514 39.1976 23.5602 38.7337 23.5602 38.25C23.5602 37.7663 23.7514 37.3024 24.0918 36.9604L33.6871 27.3214H1.8125C1.3318 27.3214 0.870779 27.1295 0.530869 26.7879C0.190959 26.4464 0 25.9831 0 25.5C0 25.0169 0.190959 24.5536 0.530869 24.2121C0.870779 23.8705 1.3318 23.6786 1.8125 23.6786H33.6871L24.0918 14.0396C23.923 13.8704 23.789 13.6694 23.6977 13.4481C23.6063 13.2268 23.5593 12.9896 23.5593 12.75C23.5593 12.5104 23.6063 12.2732 23.6977 12.0519C23.789 11.8306 23.923 11.6296 24.0918 11.4604Z" fill="#529351"/>
</svg>
